<?xml version="1.0" standalone="no"?>
<!DOCTYPE svg PUBLIC "-//W3C//DTD SVG 20010904//EN"
 "http://www.w3.org/TR/2001/REC-SVG-20010904/DTD/svg10.dtd">
<svg version="1.0" xmlns="http://www.w3.org/2000/svg"
 width="200.000000pt" height="200.000000pt" viewBox="0 0 200.000000 200.000000"
 preserveAspectRatio="xMidYMid meet">

<g transform="translate(0.000000,200.000000) scale(0.100000,-0.100000)"
fill="#000000" stroke="none">
<path d="M0 1000 l0 -1000 1000 0 1000 0 0 1000 0 1000 -1000 0 -1000 0 0
-1000z m1960 370 l0 -40 -437 -1 -438 -2 200 -13 c110 -7 263 -16 340 -20
l140 -7 -55 -18 c-99 -31 -168 -67 -238 -123 -56 -45 -76 -70 -107 -130 -34
-68 -37 -80 -33 -138 7 -110 40 -147 153 -170 47 -9 65 -19 89 -46 69 -78 71
-84 68 -160 l-4 -72 -103 0 -103 0 -7 74 -6 74 -57 38 c-31 21 -63 43 -71 48
-12 9 -12 8 -3 -10 6 -11 18 -27 27 -34 15 -13 85 -130 85 -144 0 -3 -17 2
-37 13 -111 56 -351 54 -463 -4 -27 -14 -29 -14 -23 2 14 37 48 90 92 143 l46
54 -80 -54 -80 -55 -3 -73 -3 -72 -117 0 -117 0 5 80 c5 76 7 81 50 134 34 40
54 56 80 61 66 12 118 42 135 76 33 63 4 157 -58 187 -15 7 -86 17 -159 22
-137 9 -145 11 -213 41 -71 31 -295 190 -400 283 l-40 35 311 1 311 0 12 -90
c21 -151 29 -157 30 -22 l1 122 45 0 c25 0 45 -3 45 -7 0 -22 32 -198 36 -203
3 -3 4 55 2 128 l-3 132 578 0 577 0 0 -40z"/>
</g>
</svg>
