<?xml version="1.0" encoding="UTF-8"?>
<svg version="1.1" xmlns="http://www.w3.org/2000/svg" width="200" height="200">
<path d="M0 0 C66 0 132 0 200 0 C200 66 200 132 200 200 C134 200 68 200 0 200 C0 134 0 68 0 0 Z " fill="#1E2D43" transform="translate(0,0)"/>
<path d="M0 0 C0.66 0 1.32 0 2 0 C2 45.21 2 90.42 2 137 C-64 137 -130 137 -198 137 C-198 94.1 -198 51.2 -198 7 C-195.525 7.495 -195.525 7.495 -193 8 C-193.33 7.34 -193.66 6.68 -194 6 C-189.30255027 7.32115774 -186.43243501 10.13868766 -182.90625 13.3359375 C-180.74504448 15.22256363 -178.48426588 16.57154712 -176 18 C-174.80360781 18.8839227 -173.61725288 19.78148855 -172.4375 20.6875 C-158.22702385 31.36527834 -146.45102749 37.55866752 -128.54711914 37.63647461 C-122.75016741 37.69878371 -117.19098451 38.20155401 -112 41 C-109.03666084 44.63951438 -107.79524829 48.46365585 -107.5 53.125 C-108.07658381 57.5935245 -109.02686418 59.6356621 -112 63 C-116.28672331 65.89104596 -120.01000788 66.36760224 -125.046875 66.49609375 C-126.01367188 66.74552734 -126.01367188 66.74552734 -127 67 C-128.12555457 68.87060049 -128.12555457 68.87060049 -129 71 C-130.00814885 71.93059893 -131.02980913 72.84671265 -132.0625 73.75 C-137.01636657 79.21010111 -135.88582448 87.09238082 -136 94 C-128.41 94 -120.82 94 -113 94 C-113.2475 91.69 -113.495 89.38 -113.75 87 C-113.90088946 83.99616396 -113.6185406 82.04962058 -113 79 C-109.52874869 75.24344036 -105.7011762 72.96983688 -101 71 C-100.01 71 -99.02 71 -98 71 C-98.44730469 71.46148437 -98.89460938 71.92296875 -99.35546875 72.3984375 C-104.07990624 77.49559181 -107.18204303 82.66284331 -110 89 C-109.34773438 88.72285156 -108.69546875 88.44570312 -108.0234375 88.16015625 C-107.14945312 87.79792969 -106.27546875 87.43570313 -105.375 87.0625 C-104.51648438 86.70285156 -103.65796875 86.34320313 -102.7734375 85.97265625 C-90.42087747 81.64056125 -74.18468856 82.85247815 -62 87 C-61.01 87.33 -60.02 87.66 -59 88 C-60.07536117 86.07884915 -61.16063912 84.16324726 -62.25 82.25 C-62.85328125 81.18265625 -63.4565625 80.1153125 -64.078125 79.015625 C-65.83677058 76.25612421 -67.59257448 74.19437901 -70 72 C-69.67 71.34 -69.34 70.68 -69 70 C-66.83403845 71.32849658 -64.69625866 72.68393551 -62.5625 74.0625 C-61.64500977 74.6184082 -61.64500977 74.6184082 -60.70898438 75.18554688 C-57.48791804 77.30326452 -56.12330923 78.55174712 -55.08984375 82.30859375 C-54.99501812 86.20469044 -55 90.10274952 -55 94 C-48.07 94 -41.14 94 -34 94 C-33.60506556 82.27820738 -33.60506556 82.27820738 -38.75 72.1875 C-43.38559193 67.73733175 -47.81674722 66.67043037 -54.03125 65.625 C-58.37475666 64.71057755 -60.12047494 63.34647507 -63 60 C-65.70811787 53.3099109 -66.36653961 45.65089333 -64.3125 38.66015625 C-63.35045065 36.63584408 -62.26279 34.85050358 -61 33 C-60.61070312 32.35804687 -60.22140625 31.71609375 -59.8203125 31.0546875 C-51.62296823 18.6859136 -37.88058003 12.47014501 -24 9 C-48.09 7.68 -72.18 6.36 -97 5 C-97 4.67 -97 4.34 -97 4 C-95.22141098 3.99120064 -95.22141098 3.99120064 -93.40689087 3.98222351 C-82.252541 3.92510164 -71.09838808 3.85239573 -59.94423866 3.76428509 C-54.20925923 3.71948728 -48.47435239 3.6802521 -42.73925781 3.65356445 C-37.20837047 3.62762514 -31.6777611 3.58728987 -26.14704514 3.53681374 C-24.03308942 3.52008137 -21.91908556 3.50860694 -19.80507278 3.50238609 C-16.8523341 3.49281402 -13.90031687 3.46483836 -10.94775391 3.43237305 C-10.0666243 3.43380814 -9.18549469 3.43524323 -8.27766418 3.4367218 C-5.60552989 3.43041967 -5.60552989 3.43041967 -2 3 C-1.34 2.01 -0.68 1.02 0 0 Z " fill="#1E2D43" transform="translate(198,63)"/>
<path d="M0 0 C37.95 0 75.9 0 115 0 C115 2.64 115 5.28 115 8 C89.92 8.33 64.84 8.66 39 9 C57.48 9.99 75.96 10.98 95 12 C92.4540554 14.5459446 90.40025532 14.86074854 86.9375 15.8125 C74.60834912 19.52071882 62.72012172 26.32760102 56.375 37.9375 C55.55936999 39.61354894 54.76188432 41.29884608 54 43 C53.67 43.66 53.34 44.32 53 45 C52.47654087 52.19756307 52.1771631 58.7196251 56 65 C59.21221261 68.00001633 62.03437842 68.54619622 66.3125 69.25 C72.76800502 70.61934955 76.07408691 72.78414404 80 78 C80.55042969 78.56332031 81.10085937 79.12664062 81.66796875 79.70703125 C83.64255706 83.10610262 83.31764074 86.4432874 83.1875 90.25 C83.125625 92.8075 83.06375 95.365 83 98 C76.07 98 69.14 98 62 98 C61.9175 95.69 61.835 93.38 61.75 91 C61.34312976 86.20814531 60.69982603 83.69300321 57.1953125 80.22265625 C54.19673473 78.27181683 51.22542306 76.54366578 48 75 C48.37511719 75.47308594 48.75023437 75.94617188 49.13671875 76.43359375 C52.88840892 81.28149566 56.62703556 86.30960765 59 92 C58.67 92.66 58.34 93.32 58 94 C56.7934375 93.319375 56.7934375 93.319375 55.5625 92.625 C48.2300502 89.28037377 40.9809321 88.67632986 33 88.75 C32.16210938 88.74226563 31.32421875 88.73453125 30.4609375 88.7265625 C22.12957424 88.75235619 15.42246983 90.19824716 8 94 C7.34 93.67 6.68 93.34 6 93 C9.4140338 86.30510393 12.86269659 80.50425365 18 75 C17.24074219 75.49371094 16.48148437 75.98742187 15.69921875 76.49609375 C14.70535156 77.13675781 13.71148437 77.77742188 12.6875 78.4375 C11.70136719 79.07558594 10.71523437 79.71367187 9.69921875 80.37109375 C7 82 7 82 4 83 C4 87.95 4 92.9 4 98 C-3.59 98 -11.18 98 -19 98 C-20.20535714 82.33035714 -20.20535714 82.33035714 -15.1875 75.6875 C-10.32335183 70.54671781 -5.75980677 69.27888236 1 68 C3.84355345 66.66527083 5.4094155 65.75932293 7.3125 63.3125 C8.78978359 58.34345519 8.27378075 54.11337506 7.0625 49.1875 C4.18349913 44.73813501 1.03956579 44.13604828 -4 43 C-7.39935991 42.65936062 -10.77325783 42.64046477 -14.1875 42.625 C-33.13853309 42.05278694 -47.12589407 33.36605094 -61 21 C-62.11568359 20.35224609 -62.11568359 20.35224609 -63.25390625 19.69140625 C-66.72577294 17.55297342 -69.72059652 15.02224847 -72.8125 12.375 C-73.40998047 11.87226562 -74.00746094 11.36953125 -74.62304688 10.8515625 C-76.1036132 9.5926581 -77.55472418 8.29926699 -79 7 C-79 6.67 -79 6.34 -79 6 C-58.54 6 -38.08 6 -17 6 C-16.01 12.6 -15.02 19.2 -14 26 C-13.67 19.07 -13.34 12.14 -13 5 C-10.03 5 -7.06 5 -4 5 C-3.01 10.94 -2.02 16.88 -1 23 C-0.67 15.41 -0.34 7.82 0 0 Z " fill="#F7F5F5" transform="translate(81,59)"/>
<path d="M0 0 C2 3 2 3 3.25 5.5 C5.97141594 9.38773706 9.35286466 10.60611981 13.875 11.6875 C14.926875 11.8421875 14.926875 11.8421875 16 12 C15.360625 12.268125 14.72125 12.53625 14.0625 12.8125 C11.66868314 13.88667752 11.66868314 13.88667752 11 17 C11.66 17.33 12.32 17.66 13 18 C12.01 18.66 11.02 19.32 10 20 C10.185625 20.495 10.37125 20.99 10.5625 21.5 C11.20139296 25.15081689 10.54905291 28.33964724 10 32 C9.67 32 9.34 32 9 32 C8.979375 30.948125 8.95875 29.89625 8.9375 28.8125 C7.79631257 24.1716711 6.38229262 23.27946279 2.49609375 20.84765625 C2.00238281 20.56792969 1.50867188 20.28820312 1 20 C1.33 18.02 1.66 16.04 2 14 C1.34 13.67 0.68 13.34 0 13 C0.33 12.01 0.66 11.02 1 10 C0.484375 9.21625 -0.03125 8.4325 -0.5625 7.625 C-2 5 -2 5 -1.1875 2.1875 C-0.795625 1.465625 -0.40375 0.74375 0 0 Z " fill="#F5F3F4" transform="translate(133,117)"/>
<path d="M0 0 C18.48 0 36.96 0 56 0 C55.34 0.99 54.68 1.98 54 3 C51.0078125 3.328125 51.0078125 3.328125 47.125 3.25 C46.42101074 3.23831787 45.71702148 3.22663574 44.99169922 3.21459961 C35.98663555 3.02728016 26.99123752 2.51152898 18 2 C16.24220942 1.90324684 14.48439694 1.80689059 12.7265625 1.7109375 C8.48410976 1.47851351 4.24198584 1.24078905 0 1 C0 0.67 0 0.34 0 0 Z " fill="#47494F" transform="translate(101,67)"/>
<path d="M0 0 C1.22126839 0.00212242 1.22126839 0.00212242 2.46720886 0.00428772 C5.05500031 0.00986308 7.64270367 0.02241101 10.23046875 0.03515625 C11.99023312 0.04017444 13.74999886 0.04473679 15.50976562 0.04882812 C19.81253369 0.05982444 24.11523631 0.07707204 28.41796875 0.09765625 C28.08796875 0.75765625 27.75796875 1.41765625 27.41796875 2.09765625 C22.46796875 2.09765625 17.51796875 2.09765625 12.41796875 2.09765625 C12.74796875 2.75765625 13.07796875 3.41765625 13.41796875 4.09765625 C12.71671875 3.76765625 12.01546875 3.43765625 11.29296875 3.09765625 C8.15793759 2.00721063 5.71233693 1.94442982 2.41796875 2.09765625 C2.41796875 2.42765625 2.41796875 2.75765625 2.41796875 3.09765625 C0.31408306 3.15167899 -1.79019839 3.19045881 -3.89453125 3.22265625 C-5.65216797 3.25746094 -5.65216797 3.25746094 -7.4453125 3.29296875 C-10.58203125 3.09765625 -10.58203125 3.09765625 -13.58203125 1.09765625 C-9.06146029 -0.03937161 -4.62863342 -0.03049009 0 0 Z " fill="#23293A" transform="translate(165.58203125,66.90234375)"/>
<path d="M0 0 C2.72575644 0.35989425 3.78718575 0.75816562 5.6328125 2.85546875 C8.37201091 7.13636259 10.72252199 11.01783577 12 16 C8.37 14.68 4.74 13.36 1 12 C1 10.35 1 8.7 1 7 C1.66 7 2.32 7 3 7 C2.67 5.35 2.34 3.7 2 2 C1.34 2 0.68 2 0 2 C0 1.34 0 0.68 0 0 Z " fill="#EFF2F5" transform="translate(128,137)"/>
<path d="M0 0 C0.33 0 0.66 0 1 0 C1 8.91 1 17.82 1 27 C-0.6799836 23.6400328 -1.28195798 22.18042022 -1.6328125 18.671875 C-1.71660156 17.87265625 -1.80039063 17.0734375 -1.88671875 16.25 C-1.96535156 15.425 -2.04398438 14.6 -2.125 13.75 C-2.21136719 12.90953125 -2.29773438 12.0690625 -2.38671875 11.203125 C-2.59811722 9.13611777 -2.79999462 7.06814072 -3 5 C-5.97 5 -8.94 5 -12 5 C-12 4.67 -12 4.34 -12 4 C-6.06 3.505 -6.06 3.505 0 3 C0 2.01 0 1.02 0 0 Z " fill="#4F525D" transform="translate(80,59)"/>
<path d="M0 0 C0.66 0.33 1.32 0.66 2 1 C1.55269531 1.46148437 1.10539062 1.92296875 0.64453125 2.3984375 C-4.07990624 7.49559181 -7.18204303 12.66284331 -10 19 C-12 16 -12 16 -12 12 C-12.33 11.01 -12.66 10.02 -13 9 C-11.71802734 8.15115234 -11.71802734 8.15115234 -10.41015625 7.28515625 C-9.2942305 6.54433159 -8.17834728 5.80344286 -7.0625 5.0625 C-6.49853516 4.68931641 -5.93457031 4.31613281 -5.35351562 3.93164062 C-2.53966389 2.14034283 -2.53966389 2.14034283 0 0 Z " fill="#353D4B" transform="translate(98,133)"/>
<path d="M0 0 C1.58500588 0.9346695 3.16793416 1.87286263 4.75 2.8125 C5.63171875 3.33457031 6.5134375 3.85664063 7.421875 4.39453125 C9.73295067 5.8337011 11.92814275 7.23311239 14 9 C14 9.66 14 10.32 14 11 C13.01 11.495 13.01 11.495 12 12 C12 13.98 12 15.96 12 18 C9.31124476 14.48701324 6.9033725 10.8325518 4.5 7.12109375 C3.0820937 4.98154187 3.0820937 4.98154187 1.3125 3.34765625 C0 2 0 2 0 0 Z " fill="#333B46" transform="translate(128,133)"/>
<path d="M0 0 C0 2.92828926 -0.13970066 5.20402714 -1 8 C-2.32467746 8.6837045 -3.65863633 9.34964186 -5 10 C-6.10636395 12.39068734 -6.10636395 12.39068734 -7 15 C-7.95824253 16.36365283 -8.94721175 17.70794169 -10 19 C-11.11041205 16.23050172 -11.06808436 15.17405024 -9.9609375 12.34375 C-4.69370147 2.89905091 -4.69370147 2.89905091 0 0 Z " fill="#2A3341" transform="translate(145,87)"/>
<path d="M0 0 C1.76923828 0.01353516 1.76923828 0.01353516 3.57421875 0.02734375 C4.47785156 0.03894531 5.38148438 0.05054687 6.3125 0.0625 C3.75122246 2.62377754 1.59829663 3.00477461 -1.875 4 C-6.66001529 5.41640697 -11.16668783 6.95979667 -15.6875 9.0625 C-16.0175 8.4025 -16.3475 7.7425 -16.6875 7.0625 C-14.3775 5.7425 -12.0675 4.4225 -9.6875 3.0625 C-9.6875 2.4025 -9.6875 1.7425 -9.6875 1.0625 C-6.26517028 -0.07827657 -3.60076783 -0.03565117 0 0 Z " fill="#ECEDF1" transform="translate(169.6875,70.9375)"/>
<path d="M0 0 C1.32 0 2.64 0 4 0 C4 3.3 4 6.6 4 10 C2.35 10 0.7 10 -1 10 C-1 6.49064814 -0.62457273 3.43515002 0 0 Z " fill="#E7E9E9" transform="translate(81,147)"/>
<path d="M0 0 C9.1 4.2 9.1 4.2 11.375 8.75 C11.58125 9.4925 11.7875 10.235 12 11 C8.0479482 10.41827275 5.77904947 8.44842259 2.75 5.9375 C1.85796875 5.20402344 0.9659375 4.47054687 0.046875 3.71484375 C-0.62859375 3.14894531 -1.3040625 2.58304687 -2 2 C-1.34 1.34 -0.68 0.68 0 0 Z " fill="#E9E9EC" transform="translate(8,68)"/>
<path d="M0 0 C1.66666667 0 3.33333333 0 5 0 C5 0.99 5 1.98 5 3 C6.32 3.66 7.64 4.32 9 5 C8.67 5.66 8.34 6.32 8 7 C7.01 6.34 6.02 5.68 5 5 C4.01 5.66 3.02 6.32 2 7 C1.01 6.67 0.02 6.34 -1 6 C-1.99 6.495 -1.99 6.495 -3 7 C-2.690625 6.401875 -2.38125 5.80375 -2.0625 5.1875 C-0.89790296 2.91043228 -0.89790296 2.91043228 0 0 Z " fill="#F2EEED" transform="translate(124,129)"/>
<path d="M0 0 C2.64 0 5.28 0 8 0 C8.96891192 5.37305699 8.96891192 5.37305699 9 8 C7.5625 10 7.5625 10 6 11 C6 10.01 6 9.02 6 8 C5.34 8 4.68 8 4 8 C4.33 5.69 4.66 3.38 5 1 C3.35 1.33 1.7 1.66 0 2 C0 1.34 0 0.68 0 0 Z " fill="#F1F0F6" transform="translate(69,64)"/>
<path d="M0 0 C2.31 0.66 4.62 1.32 7 2 C7 2.66 7 3.32 7 4 C5.54618103 4.69699552 4.08677047 5.38233866 2.625 6.0625 C1.81289062 6.44535156 1.00078125 6.82820312 0.1640625 7.22265625 C-0.55007812 7.47917969 -1.26421875 7.73570312 -2 8 C-2.66 7.67 -3.32 7.34 -4 7 C-2.68 4.69 -1.36 2.38 0 0 Z " fill="#DEE3E9" transform="translate(91,145)"/>
<path d="M0 0 C-0.99 1.485 -0.99 1.485 -2 3 C-4.7885289 3.22107787 -7.34653181 3.28107535 -10.125 3.1875 C-10.87910156 3.17396484 -11.63320312 3.16042969 -12.41015625 3.14648438 C-14.27374127 3.11109985 -16.13695978 3.05729167 -18 3 C-13.65345107 -1.34654893 -5.83622231 -0.11910658 0 0 Z " fill="#363C47" transform="translate(157,67)"/>
<path d="M0 0 C1.19923631 1.79885447 2.35982835 3.62578844 3.4375 5.5 C4.80504308 7.68806893 6.10001566 9.28096655 8 11 C5.25 11.375 5.25 11.375 2 11 C-0.5 8.3125 -0.5 8.3125 -2 5 C-1.25 2.125 -1.25 2.125 0 0 Z " fill="#E6E7EA" transform="translate(133,117)"/>
<path d="M0 0 C0.66 1.32 1.32 2.64 2 4 C-0.26461071 5.37494222 -1.45654694 6.07991957 -4.125 5.6875 C-6 5 -6 5 -8 4 C-8 3.34 -8 2.68 -8 2 C-5.36 1.34 -2.72 0.68 0 0 Z " fill="#2A3342" transform="translate(174,72)"/>
<path d="M0 0 C0.66 0.33 1.32 0.66 2 1 C-0.31 3.64 -2.62 6.28 -5 9 C-6.65 8.67 -8.3 8.34 -10 8 C-6.97727468 4.74475735 -3.74281699 2.38179263 0 0 Z " fill="#3C3F46" transform="translate(98,133)"/>
<path d="M0 0 C1.31554985 0.4495045 2.62738358 0.90989716 3.9375 1.375 C5.03384766 1.75785156 5.03384766 1.75785156 6.15234375 2.1484375 C8 3 8 3 9 5 C8.34 5.66 7.68 6.32 7 7 C6.34 6.34 5.68 5.68 5 5 C5 5.66 5 6.32 5 7 C3.0625 6.625 3.0625 6.625 1 6 C0.67 5.34 0.34 4.68 0 4 C0.66 4 1.32 4 2 4 C2 3.34 2 2.68 2 2 C1.34 2 0.68 2 0 2 C0 1.34 0 0.68 0 0 Z " fill="#2B3949" transform="translate(41,95)"/>
<path d="M0 0 C1.32 1.32 2.64 2.64 4 4 C3.67 4.99 3.34 5.98 3 7 C1.35 7 -0.3 7 -2 7 C-2.33 6.01 -2.66 5.02 -3 4 C-1.5625 1.8125 -1.5625 1.8125 0 0 Z " fill="#273345" transform="translate(20,80)"/>
<path d="M0 0 C3 1 3 1 4.75 3.9375 C5.1625 4.948125 5.575 5.95875 6 7 C5.67 7.66 5.34 8.32 5 9 C3.02 8.01 1.04 7.02 -1 6 C-0.67 4.02 -0.34 2.04 0 0 Z " fill="#DDE5EC" transform="translate(134,144)"/>
<path d="M0 0 C3.3 0 6.6 0 10 0 C9.01 0.495 9.01 0.495 8 1 C8 1.66 8 2.32 8 3 C5.69 3.33 3.38 3.66 1 4 C0.67 2.68 0.34 1.36 0 0 Z " fill="#E0E5EB" transform="translate(129,69)"/>
<path d="M0 0 C1.51953125 1.17578125 1.51953125 1.17578125 3 3 C3.07421875 5.48046875 3.07421875 5.48046875 2.6875 8.1875 C2.50767578 9.53908203 2.50767578 9.53908203 2.32421875 10.91796875 C2.21722656 11.60503906 2.11023438 12.29210937 2 13 C1.67 13 1.34 13 1 13 C0.896875 11.906875 0.79375 10.81375 0.6875 9.6875 C0.02692273 6.14440371 -0.2027092 5.06756277 -3 3 C-2.01 2.01 -1.02 1.02 0 0 Z " fill="#D6D8DF" transform="translate(141,136)"/>
<path d="M0 0 C-1.47692308 4.67692308 -1.47692308 4.67692308 -4.125 6.3125 C-5.053125 6.6528125 -5.053125 6.6528125 -6 7 C-6 6.01 -6 5.02 -6 4 C-6.66 3.34 -7.32 2.68 -8 2 C-2.25 0 -2.25 0 0 0 Z " fill="#2C3842" transform="translate(89,120)"/>
<path d="M0 0 C3 1 3 1 4.1875 2.875 C5 5 5 5 5 8 C2 7 2 7 0 6 C0 4.02 0 2.04 0 0 Z " fill="#313946" transform="translate(84,104)"/>
<path d="M0 0 C0.33 0.66 0.66 1.32 1 2 C1.99 1.67 2.98 1.34 4 1 C6.04296875 1.77734375 6.04296875 1.77734375 8.1875 2.9375 C8.90292969 3.31777344 9.61835937 3.69804688 10.35546875 4.08984375 C10.89816406 4.39019531 11.44085938 4.69054687 12 5 C11.67 5.66 11.34 6.32 11 7 C9.55903414 6.57405412 8.12231288 6.13373367 6.6875 5.6875 C5.88699219 5.44386719 5.08648437 5.20023437 4.26171875 4.94921875 C1.90035427 3.95817977 0.66120007 2.91925057 -1 1 C-0.67 0.67 -0.34 0.34 0 0 Z " fill="#E0E6EA" transform="translate(40,92)"/>
<path d="M0 0 C1.98 0 3.96 0 6 0 C6.33 0.99 6.66 1.98 7 3 C2.05 3 -2.9 3 -8 3 C-8 2.67 -8 2.34 -8 2 C-5.36 1.67 -2.72 1.34 0 1 C0 0.67 0 0.34 0 0 Z " fill="#495261" transform="translate(165,68)"/>
<path d="M0 0 C0.33 0.66 0.66 1.32 1 2 C1.66 2.33 2.32 2.66 3 3 C1.35 4.65 -0.3 6.3 -2 8 C-2.99 7.34 -3.98 6.68 -5 6 C-3.35 4.02 -1.7 2.04 0 0 Z " fill="#E0E3E5" transform="translate(67,135)"/>
<path d="M0 0 C3.63 0 7.26 0 11 0 C8.60236815 2.39763185 7.66726502 2.34280586 4.375 2.625 C3.55773437 2.69976562 2.74046875 2.77453125 1.8984375 2.8515625 C1.27195313 2.90054688 0.64546875 2.94953125 0 3 C0 2.01 0 1.02 0 0 Z " fill="#DFE7F1" transform="translate(165,71)"/>
<path d="M0 0 C0.33 0 0.66 0 1 0 C1 2.64 1 5.28 1 8 C-0.32 8 -1.64 8 -3 8 C-3 7.01 -3 6.02 -3 5 C-2.34 5 -1.68 5 -1 5 C-1 4.34 -1 3.68 -1 3 C-1.66 3 -2.32 3 -3 3 C-2.67 2.34 -2.34 1.68 -2 1 C-1.34 1.33 -0.68 1.66 0 2 C0 1.34 0 0.68 0 0 Z " fill="#EDF1F7" transform="translate(195,59)"/>
<path d="M0 0 C1.8125 0.1875 1.8125 0.1875 4 1 C5.75 3.5625 5.75 3.5625 7 6 C6.34 6 5.68 6 5 6 C4.67 6.66 4.34 7.32 4 8 C3.34 6.02 2.68 4.04 2 2 C1.34 2 0.68 2 0 2 C0 1.34 0 0.68 0 0 Z " fill="#E9ECF0" transform="translate(128,137)"/>
<path d="M0 0 C0.66 0 1.32 0 2 0 C2 3.63 2 7.26 2 11 C-0.30694043 7.53958935 -0.62056512 5.09789669 -1 1 C-0.67 0.67 -0.34 0.34 0 0 Z " fill="#1F2934" transform="translate(140,144)"/>
<path d="M0 0 C0.66 0.66 1.32 1.32 2 2 C1.625 4.125 1.625 4.125 1 6 C0.01 6 -0.98 6 -2 6 C-2.33 4.35 -2.66 2.7 -3 1 C-2.01 0.67 -1.02 0.34 0 0 Z " fill="#2B313E" transform="translate(90,140)"/>
<path d="M0 0 C1.98 0 3.96 0 6 0 C6 0.66 6 1.32 6 2 C6.66 2.33 7.32 2.66 8 3 C7.67 4.32 7.34 5.64 7 7 C4.66666667 4.66666667 2.33333333 2.33333333 0 0 Z " fill="#E9ECF0" transform="translate(82,102)"/>
<path d="M0 0 C1.875 0.1875 1.875 0.1875 4 1 C5.25 3.5625 5.25 3.5625 6 6 C4.125 5.75 4.125 5.75 2 5 C0 1.8 0 1.8 0 0 Z " fill="#E4E2E5" transform="translate(14,73)"/>
<path d="M0 0 C0.66 0 1.32 0 2 0 C2 0.99 2 1.98 2 3 C3.32 3.66 4.64 4.32 6 5 C5.67 5.66 5.34 6.32 5 7 C3.02 6.01 1.04 5.02 -1 4 C-0.67 2.68 -0.34 1.36 0 0 Z " fill="#D8D5D9" transform="translate(127,129)"/>
<path d="M0 0 C0 0.66 0 1.32 0 2 C1.32 2.33 2.64 2.66 4 3 C2.02 3.99 2.02 3.99 0 5 C-1.32 3.68 -2.64 2.36 -4 1 C-2 0 -2 0 0 0 Z " fill="#E0E3E8" transform="translate(28,82)"/>
<path d="M0 0 C0.66 0.33 1.32 0.66 2 1 C1.01 2.98 0.02 4.96 -1 7 C-1.33 6.34 -1.66 5.68 -2 5 C-2.66 4.67 -3.32 4.34 -4 4 C-3.67 3.01 -3.34 2.02 -3 1 C-2.01 0.67 -1.02 0.34 0 0 Z " fill="#E6E7EC" transform="translate(136,95)"/>
</svg>
