<?xml version="1.0" encoding="UTF-8"?>
<svg version="1.1" xmlns="http://www.w3.org/2000/svg" width="225" height="225">
<path d="M0 0 C0.59223862 0.29945023 1.18447723 0.59890045 1.79466248 0.90742493 C2.81711815 1.41882271 2.81711815 1.41882271 3.86022949 1.94055176 C4.58423447 2.31029617 5.30823944 2.68004059 6.05418396 3.06098938 C6.81770676 3.4448732 7.58122955 3.82875702 8.3678894 4.22427368 C10.80657108 5.45198027 13.2409616 6.68793429 15.67527771 7.92427063 C17.28502303 8.73667606 18.8950466 9.5485304 20.50535583 10.3598175 C23.61604723 11.92773089 26.7247528 13.49947767 29.83201599 15.07417297 C34.55270946 17.46405282 39.29233677 19.81472806 44.03831482 22.15400696 C46.11277771 23.23677063 46.11277771 23.23677063 47.11277771 24.23677063 C47.33881776 46.29827968 36.7331352 68.07925173 26.53050232 86.9914093 C26.07167664 87.86515198 25.61285095 88.73889465 25.14012146 89.63911438 C24.72496277 90.40731506 24.30980408 91.17551575 23.88206482 91.96699524 C22.9234995 94.79523446 23.2547177 96.40682272 24.11277771 99.23677063 C25.45347582 101.41251719 25.45347582 101.41251719 27.17527771 103.54927063 C34.11883035 113.14139489 40.11884617 124.47816501 42.11277771 136.23677063 C42.33514099 137.47233704 42.33514099 137.47233704 42.56199646 138.73286438 C42.80810553 141.18992054 42.77448533 142.86123658 42.11277771 145.23677063 C40.60916138 146.58421326 40.60916138 146.58421326 38.62718201 147.72944641 C37.89945587 148.15034546 37.17172974 148.57124451 36.42195129 149.00489807 C32.73858609 150.96985928 28.99988681 152.7628286 25.19480896 154.47895813 C24.3745372 154.85158783 23.55426544 155.22421753 22.70913696 155.60813904 C20.99036206 156.38592052 19.27015066 157.1605348 17.54856873 157.93208313 C14.9156383 159.11610545 12.29267582 160.32055928 9.66941833 161.52583313 C7.99095245 162.28230873 6.31193455 163.03756097 4.63230896 163.79145813 C3.85200821 164.15278839 3.07170746 164.51411865 2.26776123 164.88639832 C1.53317184 165.21068817 0.79858246 165.53497803 0.04173279 165.86909485 C-0.91801704 166.30280899 -0.91801704 166.30280899 -1.89715576 166.74528503 C-5.96496629 167.74990988 -9.59250616 166.07581777 -13.27857971 164.4108429 C-14.52963753 163.85004784 -14.52963753 163.85004784 -15.80596924 163.27792358 C-16.69258743 162.87375717 -17.57920563 162.46959076 -18.49269104 162.05317688 C-19.87331474 161.42982704 -19.87331474 161.42982704 -21.28182983 160.79388428 C-23.22200652 159.91631344 -25.16100433 159.03613223 -27.09889221 158.15351868 C-30.07127577 156.80083908 -33.04825167 155.45868688 -36.02589417 154.11763 C-37.91094314 153.26343732 -39.79571841 152.40864031 -41.68019104 151.55317688 C-42.57288193 151.1510347 -43.46557281 150.74889252 -44.38531494 150.33456421 C-45.209897 149.95754868 -46.03447906 149.58053314 -46.88404846 149.1920929 C-47.97395332 148.6969796 -47.97395332 148.6969796 -49.08587646 148.19186401 C-50.88722229 147.23677063 -50.88722229 147.23677063 -52.88722229 145.23677063 C-53.79549156 133.24004733 -49.61279105 120.82873526 -42.28175354 111.43989563 C-35.47231219 103.47460606 -35.47231219 103.47460606 -33.05226135 93.76899719 C-34.59981069 88.52838455 -37.45452926 84.05123704 -40.43751526 79.51411438 C-42.66776921 76.01061003 -44.40158629 72.31594242 -46.13722229 68.54927063 C-46.62895935 67.51129333 -46.62895935 67.51129333 -47.13063049 66.4523468 C-52.68374133 54.52079525 -56.94845666 41.29451215 -56.90357971 28.0605011 C-56.90121811 27.15782501 -56.89885651 26.25514893 -56.89642334 25.32511902 C-56.89338699 24.63596405 -56.89035065 23.94680908 -56.88722229 23.23677063 C-49.86789879 19.63844465 -42.83773875 16.06202124 -35.79957581 12.50068665 C-33.40520684 11.28786464 -31.0145355 10.06816393 -28.62672424 8.84248352 C-25.19535003 7.08439418 -21.75529123 5.34446744 -18.31300354 3.60786438 C-17.245121 3.05585861 -16.17723846 2.50385284 -15.07699585 1.93511963 C-13.57600594 1.18422813 -13.57600594 1.18422813 -12.04469299 0.41816711 C-10.72898064 -0.25134727 -10.72898064 -0.25134727 -9.38668823 -0.93438721 C-5.80282069 -2.1228253 -3.42126968 -1.38362795 0 0 Z " fill="#F4F4F4" transform="translate(117.88722229003906,29.763229370117188)"/>
<path d="M0 0 C8.67709441 3.48470317 17.1618304 7.29264924 25.55786133 11.40136719 C26.90594927 12.05611992 28.25862666 12.70149822 29.61547852 13.33789062 C31.61017136 14.27432585 33.58879951 15.23903292 35.56640625 16.2109375 C37.31352905 17.05084229 37.31352905 17.05084229 39.09594727 17.90771484 C42.72221942 20.520338 43.58665987 22.81822815 45 27 C45.36480469 28.00160156 45.72960937 29.00320312 46.10546875 30.03515625 C46.64107422 31.53369141 46.64107422 31.53369141 47.1875 33.0625 C52.29431315 46.31301815 60.29449709 57.44875834 68.50390625 68.90380859 C87.09056632 94.94575757 87.09056632 94.94575757 87.02172852 108.66845703 C87.01859146 109.47944855 87.01545441 110.29044006 87.01222229 111.12600708 C87.00617226 112.05363358 87.00617226 112.05363358 87 113 C81.76947117 115.42588451 76.53669836 117.84683405 71.30175781 120.26318359 C69.52020283 121.08636469 67.73927522 121.91090492 65.95898438 122.73681641 C63.40397158 123.92185296 60.84676266 125.10202707 58.2890625 126.28125 C57.49005524 126.65310425 56.69104797 127.0249585 55.86782837 127.40808105 C50.22774341 130 50.22774341 130 48 130 C47.84144531 128.87464844 47.68289062 127.74929687 47.51953125 126.58984375 C43.77921913 101.3600404 32.46677736 79.88889505 20.23364258 57.7565918 C10.78855369 40.61481013 -0.38484438 20.09822795 0 0 Z " fill="#535456" transform="translate(67,60)"/>
<path d="M0 0 C0.78043167 0.38031876 1.56086334 0.76063751 2.36494446 1.15248108 C3.19221542 1.5629216 4.01948639 1.97336212 4.87182617 2.39624023 C5.73039719 2.81655014 6.5889682 3.23686005 7.47355652 3.66990662 C10.20667825 5.00944467 12.93575026 6.35701224 15.66479492 7.70483398 C17.52065314 8.61617414 19.3767701 9.52698759 21.2331543 10.43725586 C25.77588946 12.66618818 30.31501031 14.90232856 34.85229492 17.14233398 C34.85229492 17.80233398 34.85229492 18.46233398 34.85229492 19.14233398 C31.10407258 21.02902568 27.3544079 22.91281361 23.60351562 24.79418945 C22.33393255 25.43145908 21.06471249 26.06945256 19.79589844 26.70825195 C16.10126008 28.56801839 12.39952892 30.41224151 8.68731689 32.23669434 C7.46032903 32.84225049 6.23567488 33.45255758 5.0133667 34.06750488 C3.26188374 34.94693376 1.50058262 35.80672404 -0.26098633 36.66577148 C-1.27588135 37.1677002 -2.29077637 37.66962891 -3.33642578 38.18676758 C-8.7778352 40.03632697 -12.76801037 37.51631653 -17.66035461 35.13218689 C-18.48762558 34.72174637 -19.31489655 34.31130585 -20.16723633 33.88842773 C-21.02580734 33.46811783 -21.88437836 33.04780792 -22.76896667 32.61476135 C-25.50208841 31.27522329 -28.23116041 29.92765573 -30.96020508 28.57983398 C-32.81606329 27.66849382 -34.67218026 26.75768038 -36.52856445 25.84741211 C-41.07129961 23.61847979 -45.61042047 21.38233941 -50.14770508 19.14233398 C-50.14770508 18.48233398 -50.14770508 17.82233398 -50.14770508 17.14233398 C-44.40984606 14.25618567 -38.66147424 11.39186983 -32.90527344 8.54248047 C-30.94835557 7.57059164 -28.9938991 6.59373026 -27.04199219 5.61181641 C-24.23590187 4.20127978 -21.42144613 2.80886167 -18.60473633 1.41967773 C-17.7337178 0.97704086 -16.86269928 0.53440399 -15.96528625 0.07835388 C-15.14481308 -0.32213669 -14.3243399 -0.72262726 -13.47900391 -1.13525391 C-12.76174637 -1.49277237 -12.04448883 -1.85029083 -11.30549622 -2.21864319 C-7.18503594 -3.4389041 -3.70838944 -1.82399611 0 0 Z " fill="#535456" transform="translate(120.147705078125,36.857666015625)"/>
<path d="M0 0 C0.66 0.33 1.32 0.66 2 1 C0.39036483 17.16205114 -6.32857458 32.06011737 -13.25 46.5625 C-13.76933105 47.65135498 -14.28866211 48.74020996 -14.82373047 49.86206055 C-18.93549057 58.27842377 -18.93549057 58.27842377 -22 61 C-27.44701216 53.33176771 -32.48340353 45.61709287 -36.5625 37.125 C-36.89636719 36.44896729 -37.23023437 35.77293457 -37.57421875 35.07641602 C-39.88032976 30.10023058 -40.68240263 25.46014035 -41 20 C-37.25177766 18.1133083 -33.50211298 16.22952037 -29.7512207 14.34814453 C-28.48163763 13.7108749 -27.21241757 13.07288143 -25.94360352 12.43408203 C-21.63967523 10.26761793 -17.32690612 8.1202283 -13 6 C-12.37720154 5.6946936 -11.75440308 5.38938721 -11.11273193 5.0748291 C-9.31302817 4.19880832 -7.50624276 3.33738204 -5.69921875 2.4765625 C-4.12466919 1.72366943 -4.12466919 1.72366943 -2.51831055 0.95556641 C-1.68726807 0.64022949 -0.85622559 0.32489258 0 0 Z " fill="#535456" transform="translate(157,60)"/>
<path d="M0 0 C2.74586563 2.42395048 4.14742109 4.95451912 5.7421875 8.234375 C6.50233154 9.79744385 6.50233154 9.79744385 7.27783203 11.39208984 C7.80489746 12.5002002 8.33196289 13.60831055 8.875 14.75 C9.41366699 15.88002441 9.95233398 17.01004883 10.50732422 18.17431641 C16.53756316 31.01591332 22.28274555 44.55427256 22 59 C17.2130461 57.5085545 12.73976709 55.61378989 8.1953125 53.5234375 C7.4713327 53.19332672 6.74735291 52.86321594 6.00143433 52.52310181 C3.70797824 51.47657751 1.41647217 50.42586008 -0.875 49.375 C-2.4373727 48.66117964 -3.99987145 47.9476351 -5.5625 47.234375 C-9.37646568 45.49277094 -13.18868917 43.74740578 -17 42 C-17.54845658 26.13800666 -9.62200866 12.28797922 0 0 Z " fill="#535456" transform="translate(88,131)"/>
</svg>
