<?xml version="1.0" standalone="no"?>
<!DOCTYPE svg PUBLIC "-//W3C//DTD SVG 20010904//EN"
 "http://www.w3.org/TR/2001/REC-SVG-20010904/DTD/svg10.dtd">
<svg version="1.0" xmlns="http://www.w3.org/2000/svg"
 width="225.000000pt" height="225.000000pt" viewBox="0 0 225.000000 225.000000"
 preserveAspectRatio="xMidYMid meet">

<g transform="translate(0.000000,225.000000) scale(0.100000,-0.100000)"
fill="#000000" stroke="none">
<path d="M908 1807 c-114 -56 -207 -104 -207 -107 0 -3 95 -51 212 -108 l212
-103 213 103 c116 57 212 105 212 108 -1 5 -422 211 -430 210 -3 -1 -98 -47
-212 -103z"/>
<path d="M674 1597 c10 -76 76 -267 133 -382 27 -55 99 -197 159 -315 119
-231 158 -335 177 -466 l12 -83 193 87 192 87 0 36 c0 96 -54 206 -207 421
-117 166 -193 303 -219 396 l-18 64 -70 35 c-39 20 -136 67 -215 104 l-144 69
7 -53z"/>
<path d="M1370 1548 c-113 -54 -207 -102 -209 -104 -8 -8 19 -96 49 -162 41
-88 138 -234 150 -227 14 8 90 162 134 268 48 116 105 329 87 326 -3 0 -98
-46 -211 -101z"/>
<path d="M826 848 c-71 -110 -105 -190 -112 -266 l-5 -57 193 -87 c106 -47
194 -85 194 -85 7 9 -24 161 -47 230 -29 87 -108 263 -145 324 l-20 31 -58
-90z"/>
</g>
</svg>
